<?xml version="1.0" standalone="no"?>
<!DOCTYPE svg PUBLIC "-//W3C//DTD SVG 20010904//EN"
 "http://www.w3.org/TR/2001/REC-SVG-20010904/DTD/svg10.dtd">
<svg version="1.0" xmlns="http://www.w3.org/2000/svg"
 width="575.000000pt" height="575.000000pt" viewBox="0 0 575.000000 575.000000"
 preserveAspectRatio="xMidYMid meet">
<metadata>
Created by potrace 1.14, written by Peter Selinger 2001-2017
</metadata>
<g transform="translate(0.000000,575.000000) scale(0.100000,-0.100000)"
fill="#000000" stroke="none">
<path d="M2575 4593 c-61 -32 -75 -52 -75 -110 0 -40 -5 -58 -21 -74 -23 -23
-45 -20 -100 17 -19 13 -46 24 -60 24 -35 0 -104 -42 -106 -65 -17 -169 -19
-171 -122 -118 l-72 38 -54 -29 c-30 -16 -55 -34 -56 -40 -1 -6 -2 -38 -3 -71
-1 -33 -5 -66 -9 -73 -14 -21 -50 -13 -104 23 -29 19 -58 35 -66 35 -7 0 -33
-13 -57 -28 -45 -28 -45 -28 -55 -107 -13 -104 -24 -111 -103 -62 -33 20 -67
37 -76 37 -9 0 -39 -11 -66 -25 -54 -28 -58 -36 -62 -130 -3 -54 -5 -60 -26
-63 -15 -2 -45 10 -78 32 -29 20 -62 36 -73 36 -11 0 -39 -15 -63 -33 l-43
-33 0 -70 c-1 -110 -13 -116 -118 -52 l-69 42 -45 -24 c-61 -32 -77 -59 -70
-114 7 -52 -4 -100 -24 -104 -9 -1 -43 15 -76 38 -67 45 -80 47 -126 24 -60
-31 -67 -42 -67 -109 0 -33 4 -65 9 -70 5 -6 11 -59 13 -120 l3 -109 -73 -56
c-41 -30 -80 -67 -88 -82 -9 -16 -18 -85 -24 -171 -5 -80 -14 -158 -20 -173
-15 -39 -50 -75 -142 -145 -42 -33 -84 -69 -92 -81 -23 -33 -20 -93 4 -116 33
-31 96 -55 123 -48 31 7 247 163 302 217 l39 38 6 158 c7 178 14 199 78 251
41 32 57 37 86 26 26 -10 18 -30 -25 -59 -22 -16 -45 -37 -50 -47 -6 -10 -13
-89 -16 -176 -4 -110 -10 -167 -21 -190 -10 -22 -52 -62 -116 -112 -133 -103
-138 -108 -134 -161 3 -41 6 -46 53 -71 78 -43 98 -38 211 44 140 101 192 146
211 182 13 23 18 70 22 188 7 176 9 182 98 235 34 20 46 22 62 13 30 -16 26
-25 -23 -62 -25 -18 -47 -42 -50 -53 -4 -11 -9 -90 -12 -175 -3 -85 -7 -164
-9 -176 -3 -12 -50 -54 -115 -102 -115 -86 -150 -126 -150 -178 0 -36 19 -56
82 -84 61 -27 75 -21 233 98 167 125 175 133 176 196 0 28 4 106 8 173 6 111
9 125 31 149 52 55 140 79 140 39 0 -8 -20 -28 -45 -45 -25 -17 -47 -41 -49
-53 -3 -12 -7 -90 -10 -174 -4 -107 -10 -161 -20 -181 -8 -16 -61 -64 -118
-107 -57 -43 -111 -87 -120 -97 -26 -29 -24 -92 4 -117 30 -28 102 -55 131
-48 24 7 179 114 260 180 75 62 80 79 87 261 l5 159 50 43 c50 44 84 54 115
34 12 -9 9 -15 -20 -40 -19 -16 -38 -30 -41 -30 -18 0 -28 -71 -31 -212 -4
-186 0 -179 -139 -285 -120 -92 -139 -114 -139 -162 0 -41 13 -58 67 -85 41
-21 87 -20 121 1 46 29 245 180 280 212 l32 30 0 154 c0 85 5 168 11 185 7 20
28 42 58 61 54 35 73 38 91 16 11 -13 8 -20 -21 -45 -19 -16 -37 -29 -40 -30
-18 -1 -28 -69 -32 -205 -3 -112 -8 -158 -20 -181 -9 -17 -67 -70 -132 -120
l-116 -89 3 -50 c3 -48 5 -51 53 -82 27 -18 59 -33 71 -33 42 0 307 196 339
250 17 30 21 58 25 194 l5 158 48 44 c48 43 68 51 101 38 26 -10 18 -27 -28
-62 l-44 -33 -4 -167 c-3 -129 -7 -174 -20 -197 -9 -16 -66 -68 -126 -115 -61
-47 -116 -95 -121 -108 -16 -34 -13 -67 6 -90 23 -26 91 -62 119 -62 24 0 166
92 260 169 98 79 98 78 104 266 5 157 6 165 30 190 14 14 40 36 58 47 28 17
38 19 59 9 l26 -12 -45 -47 -46 -47 -4 -150 c-6 -200 -15 -218 -175 -339 -79
-60 -93 -80 -93 -137 0 -47 1 -48 55 -79 38 -22 63 -30 79 -26 26 6 232 151
285 200 47 44 58 77 65 196 13 206 14 211 57 252 22 21 48 38 57 38 10 0 55
-18 101 -40 45 -22 88 -40 95 -40 7 0 50 18 96 41 93 44 107 45 159 1 l35 -29
8 -149 c4 -82 12 -165 18 -184 12 -45 56 -87 203 -194 132 -95 150 -101 225
-65 51 25 67 54 58 103 -7 37 -21 51 -160 158 -111 85 -110 81 -116 280 l-5
170 -45 39 c-42 36 -44 40 -28 55 23 23 56 12 109 -35 l44 -39 5 -163 c3 -96
10 -172 17 -184 33 -58 295 -255 338 -255 32 0 93 31 119 59 11 12 19 35 19
51 0 37 -30 70 -133 150 -41 32 -85 69 -98 82 -30 33 -42 110 -42 269 l0 127
-45 33 c-56 43 -62 57 -28 65 32 9 88 -20 118 -61 17 -23 21 -47 25 -183 3
-90 10 -166 17 -177 20 -35 85 -91 201 -174 111 -79 125 -86 167 -81 32 3 93
38 105 59 17 32 11 78 -12 106 -13 14 -65 58 -117 98 -139 106 -135 96 -141
299 l-5 170 -48 42 c-45 39 -46 42 -27 54 11 6 25 12 31 12 17 0 98 -59 109
-81 6 -11 15 -92 19 -180 9 -183 9 -182 107 -262 126 -102 226 -167 257 -167
29 0 115 42 129 64 15 23 8 75 -14 101 -13 14 -66 58 -118 98 -130 99 -132
103 -138 300 l-4 162 -52 48 c-49 46 -50 49 -31 63 34 25 105 -19 137 -86 19
-38 23 -65 26 -180 2 -74 8 -148 14 -163 11 -27 100 -101 270 -221 l67 -47 48
21 c69 30 93 56 93 100 0 50 -14 66 -139 159 -60 45 -112 89 -116 99 -4 9 -11
96 -15 192 l-9 175 -52 46 c-51 45 -51 47 -30 58 18 10 30 9 66 -9 25 -12 56
-35 70 -52 25 -29 25 -33 25 -197 l0 -167 28 -26 c51 -49 297 -229 320 -235
25 -6 89 19 128 50 19 14 24 28 24 61 0 48 -17 67 -135 153 -133 97 -128 86
-140 294 l-10 181 -50 44 c-41 36 -47 46 -35 54 8 5 20 10 25 10 18 0 110 -46
123 -62 8 -10 15 -77 21 -197 10 -209 3 -192 119 -278 108 -80 232 -153 261
-153 56 0 110 57 111 116 0 42 -17 61 -129 147 -137 105 -132 92 -138 299 l-6
176 -49 37 c-82 61 -40 105 45 47 72 -50 71 -49 78 -221 7 -207 8 -208 199
-348 103 -76 149 -103 176 -103 25 0 102 47 114 70 15 29 12 75 -7 99 -10 12
-61 54 -113 94 -136 104 -136 103 -142 295 -4 90 -11 169 -18 181 -6 12 -45
46 -86 77 l-74 55 0 106 c0 59 5 133 12 165 15 75 5 106 -47 135 -54 31 -71
29 -132 -12 -54 -36 -93 -44 -111 -22 -5 7 -6 21 -1 32 11 29 11 93 -1 116 -6
10 -33 31 -61 45 l-51 25 -69 -41 c-38 -23 -77 -40 -86 -38 -21 4 -35 53 -27
95 10 53 -2 79 -50 107 -25 14 -51 26 -59 26 -8 0 -41 -16 -73 -35 -98 -59
-111 -51 -116 70 -3 55 -5 61 -37 82 -51 35 -80 39 -115 18 -103 -61 -104 -61
-122 -43 -10 10 -18 38 -21 70 -7 87 -11 96 -56 123 -24 14 -49 25 -56 25 -7
0 -39 -16 -71 -36 -32 -20 -66 -34 -76 -32 -25 5 -44 45 -44 96 0 54 -11 75
-54 101 -43 27 -63 26 -108 -4 -91 -62 -112 -52 -122 54 l-7 71 -45 26 c-58
34 -81 33 -134 -5 -47 -34 -81 -39 -100 -17 -6 8 -15 45 -18 83 -7 62 -9 69
-41 90 -57 39 -77 39 -126 4 -53 -38 -67 -38 -140 -5 l-58 27 -51 -23 c-81
-35 -92 -36 -147 -1 -57 35 -63 36 -104 14z m602 -38 l28 -25 -30 -25 c-36
-30 -43 -30 -90 -8 -41 20 -41 30 5 61 42 28 52 28 87 -3z m-509 -5 c38 -24
35 -34 -23 -64 l-36 -20 -37 37 c-35 36 -36 37 -17 52 28 20 74 18 113 -5z
m-296 -159 l32 -28 -25 -16 c-48 -30 -66 -30 -101 2 l-33 31 25 20 c35 27 64
25 102 -9z m1098 14 c37 -19 37 -28 4 -54 -34 -26 -75 -27 -105 -1 l-24 20 30
25 c35 29 55 31 95 10z m-1396 -162 l39 -26 -27 -24 c-15 -12 -38 -23 -51 -23
-22 0 -85 44 -85 59 0 8 59 39 75 40 6 1 28 -11 49 -26z m1691 10 c41 -20 41
-30 -6 -61 -35 -24 -77 -24 -106 -1 -20 17 -16 26 24 54 45 30 43 30 88 8z
m-2007 -147 c15 -8 35 -23 46 -35 18 -20 18 -20 -27 -42 l-46 -22 -35 27 c-44
33 -45 49 -3 70 39 19 33 19 65 2z m2336 -16 c12 -12 -17 -46 -56 -66 -25 -13
-32 -12 -70 7 l-42 22 34 29 c31 26 40 29 80 24 24 -4 49 -11 54 -16z m-2612
-156 c21 -15 38 -30 38 -35 0 -12 -55 -39 -77 -39 -10 0 -34 13 -53 30 l-35
30 25 20 c34 26 57 25 102 -6z m2878 11 c17 -9 30 -20 30 -25 0 -14 -72 -60
-95 -60 -23 0 -65 26 -65 40 0 12 71 60 88 60 7 0 26 -7 42 -15z m-1330 -100
c37 -7 146 -65 166 -87 14 -14 17 -35 16 -91 -1 -75 5 -90 48 -120 l25 -18
-25 5 c-77 13 -118 32 -152 69 -16 17 -38 97 -38 135 0 29 -53 84 -100 103
l-45 19 40 -5 c22 -2 51 -7 65 -10z m300 -31 c46 -19 60 -38 60 -85 0 -18 8
-41 18 -52 17 -19 16 -19 -23 -3 -50 21 -74 51 -75 93 0 21 -7 37 -22 47 -29
21 -9 20 42 0z m-2148 -30 c21 -15 38 -33 38 -40 0 -14 -49 -44 -72 -44 -15 0
-88 57 -88 69 0 8 58 39 74 40 6 1 27 -11 48 -25z m3473 10 c33 -22 31 -34 -9
-66 -42 -33 -51 -34 -94 -8 -29 18 -32 23 -20 37 17 21 69 53 86 53 7 0 24 -7
37 -16z m-1778 -9 c57 -24 73 -43 73 -86 0 -28 6 -42 22 -53 19 -14 20 -16 5
-16 -27 0 -75 28 -87 49 -5 11 -10 30 -10 43 -1 29 -20 55 -51 67 -18 7 -19
10 -6 10 10 1 34 -6 54 -14z m-1980 -161 c18 -14 33 -31 33 -38 0 -7 -18 -21
-39 -31 -39 -17 -40 -17 -69 3 -16 12 -35 29 -43 38 -12 14 -10 19 10 35 32
26 68 24 108 -7z m4061 10 c30 -21 28 -27 -18 -64 -37 -29 -43 -31 -70 -20
-16 7 -35 19 -42 27 -11 13 -7 20 22 44 38 32 74 37 108 13z m-2156 -127 c-12
-29 -14 -50 -10 -137 2 -68 0 -100 -7 -100 -6 0 -47 11 -92 24 -75 21 -99 23
-321 24 -290 0 -307 4 -307 77 0 44 1 46 40 60 31 12 97 16 285 19 223 2 288
7 312 22 5 3 21 8 35 10 15 3 29 7 31 9 6 6 37 -2 34 -8z m-2204 -37 c23 -17
42 -34 42 -39 0 -4 -18 -16 -40 -26 l-41 -18 -41 29 c-52 37 -55 45 -21 66 39
24 54 22 101 -12z m4650 14 c32 -22 27 -38 -19 -73 -39 -28 -44 -29 -69 -16
-52 27 -54 40 -13 74 42 35 68 39 101 15z m-2336 -13 c10 -11 10 -14 1 -18
-17 -6 -18 -123 -2 -123 8 0 8 -5 -1 -15 -7 -9 -29 -15 -51 -15 l-39 0 0 93 0
93 40 0 c21 -1 45 -7 52 -15z m780 -44 c6 -11 5 -17 -2 -17 -7 0 -9 -12 -4
-35 l6 -35 -381 0 -381 0 0 49 c0 38 4 50 17 53 9 2 178 3 376 2 327 0 360 -2
369 -17z m193 -21 c35 -7 37 -9 20 -19 -24 -13 -164 -17 -171 -5 -20 32 50 43
151 24z m-3358 -42 c37 -36 141 -96 463 -266 1409 -746 1817 -962 1835 -974
26 -18 47 -18 92 3 42 19 2135 1127 2223 1176 30 17 72 48 92 69 21 21 42 38
48 38 15 0 12 -46 -5 -60 -8 -7 -15 -18 -15 -26 0 -16 -64 -53 -340 -202 -486
-260 -1968 -1046 -2005 -1062 l-40 -18 -220 113 c-425 217 -2035 1074 -2127
1131 -37 23 -68 72 -68 106 0 28 16 22 67 -28z m1513 31 c0 -8 -3 -15 -7 -16
-5 0 -26 -3 -48 -5 -21 -2 -54 -9 -73 -15 -45 -15 -41 -47 10 -71 49 -23 78
-28 221 -33 156 -6 195 -12 234 -36 38 -24 45 -41 38 -93 -6 -35 -3 -44 19
-65 45 -43 100 -50 351 -46 127 2 251 6 278 9 42 4 47 3 47 -14 0 -16 -7 -20
-32 -20 -18 -1 -60 -3 -93 -6 -92 -8 -415 -7 -460 1 -94 16 -127 31 -153 70
-20 28 -23 41 -17 74 11 66 -27 86 -170 90 -203 6 -240 11 -311 46 -122 60
-61 134 119 143 37 2 47 0 47 -13z m-1435 -272 c19 -9 35 -20 35 -23 0 -13
-169 -149 -228 -184 -15 -9 -82 31 -82 49 0 14 213 175 231 175 5 0 24 -8 44
-17z m4652 -30 c91 -62 173 -123 173 -128 0 -2 -20 -16 -45 -31 l-45 -26 -92
71 c-51 39 -106 81 -123 95 l-29 24 34 21 c19 11 40 21 47 21 6 0 42 -21 80
-47z m-4657 -126 c-36 -35 -79 -74 -97 -87 l-32 -25 -8 -171 c-7 -133 -12
-177 -26 -197 -15 -24 -216 -180 -265 -206 -19 -10 -22 -9 -22 8 0 19 56 73
169 163 94 74 95 78 101 251 3 85 10 161 17 172 30 53 200 182 217 165 8 -8
-7 -28 -54 -73z m4628 -10 c89 -70 94 -84 102 -264 7 -181 -2 -164 161 -289
87 -66 99 -80 99 -112 0 -24 0 -24 -26 -7 -15 9 -84 62 -155 117 l-129 99 0
147 c0 184 -7 210 -68 259 -85 67 -112 96 -112 121 l0 23 33 -22 c17 -13 60
-45 95 -72z m-249 -32 c134 -90 145 -100 138 -119 -9 -22 -51 -40 -79 -33 -43
11 -218 149 -218 172 0 9 46 44 59 45 2 0 47 -29 100 -65z m-4065 40 c10 -8
16 -21 13 -29 -10 -24 -206 -166 -230 -166 -27 0 -67 26 -67 44 0 13 11 22
139 113 76 55 110 64 145 38z m-536 -83 c13 -17 18 -322 6 -322 -15 0 -75 43
-85 61 -10 19 -5 198 7 277 l5 34 27 -17 c15 -10 33 -24 40 -33z m5066 16 c3
-13 6 -78 6 -146 l0 -124 -30 -30 c-17 -16 -36 -28 -43 -26 -14 5 -30 155 -24
242 3 49 8 63 31 83 34 29 52 29 60 1z m-4494 -26 c0 -21 -30 -51 -112 -111
-31 -23 -60 -50 -64 -59 -4 -9 -10 -92 -13 -184 -6 -166 -7 -167 -34 -196 -39
-41 -267 -206 -274 -199 -19 20 17 62 136 155 l129 102 4 164 c3 147 5 168 24
193 22 30 178 153 194 153 6 0 10 -8 10 -18z m3951 -44 c124 -95 122 -91 129
-270 3 -86 11 -162 17 -174 14 -25 64 -69 160 -144 90 -69 133 -135 76 -116
-30 11 -245 179 -267 209 -19 25 -21 46 -24 193 l-4 164 -83 70 c-104 87 -137
130 -100 130 8 0 51 -28 96 -62z m-3701 -13 c17 -9 30 -20 30 -25 0 -12 -162
-142 -206 -166 -29 -16 -33 -16 -67 1 -20 9 -37 23 -37 30 0 19 216 175 242
175 5 0 22 -7 38 -15z m3518 -66 c62 -44 111 -86 109 -92 -2 -7 -18 -20 -36
-31 -41 -24 -56 -17 -166 68 -111 87 -115 93 -86 117 13 11 33 19 45 19 11 -1
72 -37 134 -81z m-4040 -23 c14 -15 17 -40 16 -157 0 -77 -5 -144 -10 -149
-14 -14 -74 19 -85 47 -10 27 -12 255 -3 290 6 22 7 22 36 5 16 -9 37 -25 46
-36z m4466 19 c3 -8 8 -72 12 -142 7 -144 4 -152 -58 -178 l-38 -15 0 154 c0
147 1 156 22 176 26 24 54 26 62 5z m-3894 -22 c0 -16 -19 -35 -143 -145 l-41
-36 -6 -164 c-4 -133 -9 -169 -23 -191 -17 -26 -186 -160 -251 -198 -37 -22
-54 -13 -36 20 5 11 59 58 118 104 59 47 114 98 121 114 7 15 17 92 22 171 4
78 14 155 21 170 14 29 184 172 205 172 7 0 13 -8 13 -17z m3378 -68 c39 -31
77 -66 84 -78 7 -13 14 -87 18 -172 3 -82 11 -159 17 -170 16 -28 64 -71 161
-145 75 -57 107 -99 88 -117 -12 -12 -245 163 -280 210 -19 25 -22 47 -27 185
-3 91 -10 166 -17 179 -7 12 -33 39 -59 59 -81 64 -113 97 -113 116 0 17 2 17
28 4 15 -8 60 -40 100 -71z m-3128 10 c17 -9 30 -19 30 -24 0 -23 -214 -181
-245 -181 -26 0 -78 37 -70 51 11 17 228 169 242 169 8 0 27 -7 43 -15z m2813
3 c54 -28 217 -151 217 -164 0 -15 -50 -44 -76 -44 -29 0 -234 160 -234 182 0
8 49 37 63 38 5 0 18 -5 30 -12z m-3364 -74 l31 -26 0 -154 c0 -171 -2 -176
-59 -128 l-31 26 0 131 c0 132 5 177 20 177 5 0 22 -12 39 -26z m3905 0 c10
-25 7 -250 -4 -278 -10 -28 -67 -63 -81 -49 -5 5 -10 73 -11 152 l-3 143 30
24 c35 28 60 31 69 8z m-3304 -21 c0 -9 -23 -38 -51 -63 -126 -111 -130 -115
-139 -155 -5 -22 -10 -93 -10 -158 0 -171 -2 -174 -210 -322 -74 -52 -96 -63
-98 -50 -5 22 16 45 123 130 147 119 138 100 146 283 3 87 11 168 17 179 18
33 191 173 214 173 4 0 8 -8 8 -17z m2823 -105 c59 -52 66 -80 67 -235 0 -162
3 -168 161 -289 64 -49 99 -83 103 -100 4 -15 5 -29 2 -31 -6 -7 -226 149
-271 192 l-32 30 -6 153 c-8 192 -17 217 -110 287 -68 52 -94 85 -82 104 7 13
90 -42 168 -111z m-4032 82 l24 -20 -37 -33 c-20 -18 -75 -60 -122 -92 -78
-53 -88 -57 -111 -47 -37 17 -43 41 -14 64 84 66 205 148 219 148 10 0 28 -9
41 -20z m5238 -60 c61 -45 111 -87 111 -95 0 -14 -48 -45 -69 -45 -12 0 -202
142 -221 165 -13 15 -11 20 9 36 13 11 31 19 41 19 10 0 68 -36 129 -80z
m-1496 -20 c40 -28 90 -66 112 -85 l40 -35 -24 -20 c-40 -34 -67 -25 -177 58
-57 42 -106 83 -109 90 -6 15 54 54 73 47 8 -3 46 -28 85 -55z m-2275 34 c13
-9 22 -20 20 -24 -4 -13 -230 -180 -242 -180 -6 0 -26 9 -43 20 -49 29 -49 29
116 147 78 56 110 64 149 37z m-562 -63 c36 -22 44 -53 44 -176 0 -156 -16
-183 -77 -131 -28 24 -28 26 -31 151 -5 181 1 195 64 156z m3309 -3 c3 -13 4
-83 3 -157 l-3 -133 -37 -21 c-20 -12 -40 -18 -44 -14 -4 4 -8 73 -7 154 l0
146 27 24 c34 29 54 29 61 1z m-2715 -24 c0 -17 -43 -61 -125 -129 -47 -40
-49 -43 -56 -110 -4 -39 -8 -115 -9 -170 0 -60 -6 -109 -13 -123 -13 -22 -272
-222 -289 -222 -4 0 -8 8 -8 19 0 24 35 59 152 148 60 45 100 82 102 96 3 12
7 81 10 154 6 175 17 200 127 287 85 68 109 78 109 50z m2151 -30 c90 -66 127
-103 134 -135 4 -16 10 -94 14 -174 8 -166 3 -155 126 -253 100 -79 145 -123
145 -144 0 -10 -4 -18 -10 -18 -16 0 -253 184 -274 213 -18 25 -22 48 -27 180
-6 171 -14 196 -76 242 -57 42 -123 108 -123 122 0 23 27 14 91 -33z m-3336
-5 c0 -14 -222 -189 -240 -189 -5 0 -23 11 -40 25 l-30 25 35 31 c19 17 75 57
123 90 85 57 89 58 120 46 18 -8 32 -20 32 -28z m4634 -51 c61 -46 111 -88
111 -94 0 -6 -13 -17 -29 -23 -23 -10 -35 -9 -62 2 -45 19 -210 138 -217 156
-3 7 3 20 13 27 39 29 70 17 184 -68z m-3180 17 c12 -11 12 -17 2 -29 -25 -30
-210 -166 -226 -166 -21 0 -75 28 -75 39 0 11 74 73 160 135 68 49 106 54 139
21z m1674 -25 c41 -28 93 -67 116 -86 46 -40 44 -52 -8 -74 -36 -15 -48 -9
-156 75 -110 86 -115 92 -86 116 34 28 52 24 134 -31z m-3720 29 c43 -22 77
-89 46 -89 -33 0 -95 70 -82 93 6 9 10 9 36 -4z m5662 1 c10 -15 -13 -49 -45
-65 -69 -35 -83 -2 -18 45 44 32 54 35 63 20z m-1457 -228 c-3 -110 -5 -125
-23 -138 -25 -18 -64 -29 -73 -19 -12 12 -15 236 -3 274 7 26 22 43 48 58 l38
22 8 -37 c5 -20 7 -92 5 -160z m-2688 9 c0 -77 -3 -146 -6 -155 -8 -21 -33
-20 -64 4 -25 18 -25 21 -25 157 0 76 3 146 7 156 7 17 10 17 48 -3 l40 -20 0
-139z m556 125 c-4 -15 -39 -53 -86 -92 -44 -36 -86 -76 -92 -87 -6 -12 -14
-91 -17 -177 -4 -91 -12 -164 -19 -177 -18 -32 -260 -213 -284 -213 -5 0 -8
10 -6 22 2 15 41 52 113 108 154 121 151 116 157 302 3 84 9 161 13 172 8 19
216 178 223 171 3 -2 2 -15 -2 -29z m1583 -46 c50 -39 99 -83 108 -97 15 -22
19 -57 23 -184 6 -180 2 -171 115 -257 86 -65 145 -123 145 -144 0 -10 -4 -18
-9 -18 -10 0 -138 90 -216 152 -81 65 -84 72 -93 263 l-8 167 -31 27 c-123
104 -143 124 -143 142 0 10 4 19 9 19 5 0 50 -32 100 -70z m-2773 29 c8 -6 11
-16 8 -21 -13 -20 -206 -158 -230 -164 -29 -8 -74 10 -74 28 0 14 34 43 147
124 64 46 82 55 107 50 16 -3 35 -11 42 -17z m4031 -52 c54 -41 105 -82 113
-91 13 -16 12 -20 -5 -32 -36 -26 -69 -16 -161 50 -49 35 -100 76 -112 89
l-24 25 29 16 c15 8 36 15 45 16 9 0 61 -33 115 -73z m-1554 22 c48 -26 217
-153 217 -165 0 -17 -45 -44 -74 -44 -16 0 -61 28 -123 76 -128 100 -130 104
-85 128 33 19 38 19 65 5z m-1025 -15 c19 -13 21 -18 10 -32 -28 -34 -211
-162 -231 -162 -25 0 -67 26 -67 41 0 12 36 43 132 112 85 60 117 69 156 41z
m3022 -13 c0 -29 -22 -51 -67 -65 -41 -13 -28 30 19 64 22 16 43 30 45 30 1 0
3 -13 3 -29z m-5039 -4 c29 -19 53 -67 34 -67 -20 0 -75 31 -88 51 -30 43 1
52 54 16z m3584 -264 c-6 -65 -10 -75 -35 -93 -15 -11 -32 -20 -38 -20 -17 0
-29 204 -16 283 6 31 14 42 43 57 l36 18 8 -86 c5 -48 6 -120 2 -159z m-2114
218 c23 -19 24 -24 24 -169 0 -83 -4 -154 -8 -158 -16 -16 -76 28 -88 64 -11
34 -5 253 7 274 9 14 41 9 65 -11z m1568 -71 c50 -39 98 -84 107 -102 12 -22
17 -70 21 -172 4 -93 10 -152 20 -173 9 -20 53 -61 111 -107 115 -87 145 -118
140 -141 -2 -14 -21 -6 -97 46 -122 82 -187 142 -200 182 -5 18 -11 96 -14
174 -5 163 -8 171 -90 231 -78 59 -107 89 -107 112 0 11 4 20 9 20 5 0 50 -32
100 -70z m-989 43 c0 -9 -21 -35 -46 -57 -25 -23 -65 -57 -87 -77 l-41 -37 -8
-157 c-5 -123 -11 -165 -26 -193 -12 -25 -58 -67 -141 -129 -116 -88 -151
-107 -151 -82 0 26 27 53 140 138 66 51 120 95 120 99 20 385 10 350 136 449
82 65 104 74 104 46z m2173 -15 c94 -64 207 -151 207 -159 0 -5 -16 -17 -35
-26 -34 -16 -38 -16 -68 0 -45 25 -207 155 -207 167 0 9 47 39 63 40 5 0 23
-10 40 -22z m-3368 0 c14 -6 25 -14 25 -18 0 -3 -54 -46 -120 -94 -128 -94
-141 -98 -190 -58 l-23 18 49 36 c80 59 197 128 216 128 9 0 29 -5 43 -12z
m1456 -47 c21 -17 22 -21 9 -37 -19 -23 -208 -164 -220 -164 -25 0 -80 36 -78
50 4 21 218 169 244 170 12 0 32 -8 45 -19z m547 -61 c61 -45 112 -85 112 -90
0 -6 -20 -20 -44 -31 l-43 -22 -104 79 c-57 44 -110 85 -119 91 -13 11 -12 15
10 33 42 33 68 25 188 -60z m-2568 50 c22 -11 40 -22 40 -24 0 -3 3 -11 6 -20
5 -12 -1 -16 -23 -16 -39 0 -73 26 -73 56 0 29 1 29 50 4z m4460 2 c0 -32 -82
-93 -95 -72 -12 19 5 46 43 68 45 26 52 27 52 4z m-2954 -106 c7 -42 -13 -257
-26 -270 -7 -7 -19 -3 -37 11 -25 18 -29 29 -35 94 -6 69 -1 225 9 241 2 4 22
-4 43 -18 28 -19 41 -36 46 -58z m1498 37 c8 -49 8 -187 -1 -236 -5 -30 -14
-44 -45 -64 -21 -14 -42 -23 -46 -19 -4 4 -7 75 -7 158 l0 150 30 24 c43 35
61 31 69 -13z m-944 -12 c0 -12 -24 -40 -56 -68 -31 -26 -73 -62 -93 -80 l-36
-31 -5 -159 c-5 -125 -9 -165 -23 -191 -18 -33 -260 -222 -284 -222 -43 0 11
64 137 160 118 90 113 80 122 243 4 78 10 156 13 173 6 33 44 74 140 148 65
50 85 56 85 27z m392 -44 c115 -87 123 -106 131 -291 4 -80 11 -155 17 -166 6
-11 55 -54 110 -95 55 -42 109 -85 120 -97 21 -22 27 -58 11 -58 -11 0 -203
140 -244 179 -52 48 -59 73 -66 244 l-7 159 -35 32 c-20 17 -59 50 -88 74 -46
39 -68 82 -42 82 6 0 47 -28 93 -63z m1293 -51 c44 -34 81 -69 83 -77 1 -8
-11 -22 -27 -32 -29 -17 -29 -17 -87 22 -75 51 -176 133 -181 147 -2 6 11 18
29 27 30 15 35 14 68 -4 19 -11 71 -48 115 -83z m-2887 78 c12 -8 19 -20 16
-26 -12 -19 -208 -159 -231 -164 -24 -6 -73 18 -73 36 0 6 48 46 108 90 111
83 139 93 180 64z m3302 -57 c0 -13 -8 -31 -17 -39 -25 -22 -64 -41 -70 -34
-13 13 10 56 39 75 42 26 48 26 48 -2z m-3842 -13 c25 -17 31 -64 7 -64 -8 0
-32 15 -52 33 -56 52 -24 74 45 31z m1433 -29 c16 -9 34 -27 39 -41 14 -35 13
-304 0 -304 -21 0 -70 30 -80 49 -5 11 -10 44 -10 74 0 71 12 237 17 237 2 0
17 -7 34 -15z m949 -139 l0 -155 -26 -20 c-56 -44 -64 -22 -64 160 l0 118 33
25 c56 44 57 42 57 -128z m-1552 88 c12 -8 22 -19 22 -24 0 -18 -213 -170
-237 -170 -32 0 -63 17 -63 34 0 22 210 176 239 176 9 0 27 -7 39 -16z m2281
-66 c61 -46 111 -88 111 -94 0 -13 -43 -34 -69 -34 -19 0 -183 114 -215 149
-18 20 -18 22 -1 41 31 34 59 24 174 -62z m-2810 -24 c20 -25 28 -54 15 -54
-31 0 -94 58 -94 87 0 23 1 23 29 8 16 -8 39 -27 50 -41z m3255 38 c9 -15 -25
-54 -60 -68 -43 -18 -44 -18 -44 5 0 36 88 89 104 63z m-744 -165 c63 -45 114
-86 114 -92 1 -5 -16 -19 -36 -30 l-37 -19 -57 39 c-68 47 -178 134 -182 143
-3 10 49 41 68 42 8 0 67 -37 130 -83z m-1685 61 c14 -6 25 -15 25 -19 0 -11
-74 -69 -168 -134 -71 -48 -74 -49 -100 -34 -48 27 -39 42 70 123 104 77 127
85 173 64z m-565 -54 c50 -33 67 -74 31 -74 -29 0 -71 39 -71 66 0 28 7 30 40
8z m2690 -3 c0 -23 -54 -71 -81 -71 -38 0 -11 47 46 78 28 16 35 15 35 -7z
m-1825 -95 c10 -7 16 -20 12 -28 -9 -25 -212 -168 -238 -168 -22 0 -59 25 -59
40 0 7 116 97 187 146 40 27 70 30 98 10z m1094 -66 c61 -45 111 -85 111 -89
0 -14 -48 -41 -72 -41 -25 0 -215 141 -225 167 -8 19 22 43 53 43 12 0 72 -36
133 -80z m-1651 0 c41 -29 57 -70 28 -70 -28 0 -81 46 -84 73 -4 34 5 34 56
-3z m2089 3 c8 -24 -76 -78 -93 -60 -11 11 7 43 33 60 30 18 54 19 60 0z
m-1788 -159 c26 -22 43 -64 26 -64 -17 0 -66 33 -75 49 -25 47 2 55 49 15z
m1491 15 c0 -24 -24 -52 -55 -65 -45 -18 -47 -18 -43 8 5 35 98 90 98 57z"/>
</g>
</svg>
